<svg width="1920" height="125" viewBox="0 0 1920 125" fill="none" xmlns="http://www.w3.org/2000/svg">
<path d="M0 49.3793H660.344C660.344 49.3793 700.365 50.3768 757.394 44.8902C814.424 39.4037 837.436 80.3037 889.463 80.3037C941.49 80.3037 991.335 16.9585 1029.54 16.9585C1067.74 16.9585 1078.56 72.3232 1118.08 72.3232C1157.6 72.3232 1154.1 0 1191.62 0C1229.14 0 1262.73 122.201 1322.19 122.201C1381.65 122.201 1357.97 8.00379 1406.23 6.48415C1454.5 4.96451 1461.26 57.8585 1511.29 57.8585C1561.31 57.8585 1564.81 19.9512 1615.34 19.9512C1665.87 19.9512 1684.38 66.3378 1740.41 57.8585C1796.44 49.3793 1796.44 49.3793 1821.95 49.3793C1847.46 49.3793 1921.51 49.3793 1921.51 49.3793" transform="translate(-1.00052 1.12317)" stroke="url(#paint0_linear)" stroke-width="2"/>
<defs>
<linearGradient id="paint0_linear" x2="1" gradientUnits="userSpaceOnUse" gradientTransform="translate(1921.51 61.1006) scale(1921.51 122.201) rotate(-180)">
<stop stop-color="#FF10D8"/>
<stop offset="1" stop-color="#10DEBC"/>
</linearGradient>
</defs>
</svg>
