<svg width="1920" height="125" viewBox="0 0 1920 125" fill="none" xmlns="http://www.w3.org/2000/svg"><path d="M0 49.38h660.344s40.021.997 97.05-4.49c57.03-5.486 80.042 35.414 132.069 35.414 52.027 0 101.872-63.346 140.077-63.346 38.2 0 49.02 55.365 88.54 55.365S1154.1 0 1191.62 0s71.11 122.201 130.57 122.201c59.46 0 35.78-114.197 84.04-115.717 48.27-1.52 55.03 51.374 105.06 51.374 50.02 0 53.52-37.907 104.05-37.907 50.53 0 69.04 46.387 125.07 37.907 56.03-8.479 56.03-8.479 81.54-8.479h99.56" transform="translate(-1 1.123)" stroke="url(#a)" stroke-width="2"/><defs><linearGradient id="a" x2="1" gradientUnits="userSpaceOnUse" gradientTransform="matrix(-1921.51 0 0 -122.201 1921.51 61.1)"><stop stop-color="#FF10D8"/><stop offset="1" stop-color="#10DEBC"/></linearGradient></defs></svg>